<?xml version="1.0" encoding="UTF-8"?>
<svg width="30px" height="34px" viewBox="0 0 30 34" version="1.1" xmlns="http://www.w3.org/2000/svg" xmlns:xlink="http://www.w3.org/1999/xlink">
    <!-- Generator: Sketch 61.1 (89650) - https://sketch.com -->
    <title>svg/medium/lock</title>
    <desc>Created with Sketch.</desc>
    <g id="**-Sticker-Sheets" stroke="none" stroke-width="1" fill="none" fill-rule="evenodd" stroke-linecap="round" stroke-linejoin="round">
        <g id="sticker-sheet--top-hits--page-1" transform="translate(-566.000000, -3169.000000)" stroke="#046B99" stroke-width="2">
            <g id="icon-preview-row-copy-151" transform="translate(-4.000000, 3144.000000)">
                <g id="Icon-Row">
                    <g id="lock" transform="translate(561.000000, 18.214286)">
                        <path d="M12,22.2619048 L36,22.2619048 C37.1045695,22.2619048 38,23.1573353 38,24.2619048 L38,37.4642857 C38,38.5688552 37.1045695,39.4642857 36,39.4642857 L12,39.4642857 C10.8954305,39.4642857 10,38.5688552 10,37.4642857 L10,24.2619048 C10,23.1573353 10.8954305,22.2619048 12,22.2619048 Z M16,22.2619048 L16,15.9656085 C16,11.6189229 19.581722,8.0952381 24,8.0952381 C28.418278,8.0952381 32,11.6189229 32,15.9656085 L32,22.2619048"></path>
                    </g>
                </g>
            </g>
        </g>
    </g>
</svg>